<svg xmlns="http://www.w3.org/2000/svg" xmlns:svg="http://www.w3.org/2000/svg" id="svg96665" version="1.1" viewBox="0 0 640 512"><metadata id="metadata96671"/><path id="path96587" d="m 596.61126,189.81065 c -54.23,-105.810003 -161.59,-177.400003 -284.52001,-177.400003 -122.93,0 -230.319993,71.64 -284.519993,177.410003 a 32.35,32.35 0 0 0 0,29.19 c 54.23,105.81 161.589993,177.4 284.519993,177.4 122.93001,0 230.32001,-71.64 284.52001,-177.41 a 32.35,32.35 0 0 0 0,-29.19 z m -284.52001,158.6 a 144,144 0 1 1 144.00001,-144 143.93,143.93 0 0 1 -144.00001,144 z m 0,-240 a 95.31,95.31 0 0 0 -25.31,3.79 47.85,47.85 0 0 1 -66.9,66.9 95.78,95.78 0 1 0 92.21,-70.69 z" style="fill:#c8c8c8;fill-opacity:1"/></svg>